<?xml version="1.0" encoding="UTF-8" standalone="no"?>
<!-- Created with Inkscape (http://www.inkscape.org/) -->

<svg
   width="410"
   height="240"
   id="svg2161"
   sodipodi:version="0.32"
   inkscape:version="1.3.2 (091e20ef0f, 2023-11-25)"
   version="1.0"
   sodipodi:docname="bike.svg"
   inkscape:output_extension="org.inkscape.output.svg.inkscape"
   xml:space="preserve"
   xmlns:inkscape="http://www.inkscape.org/namespaces/inkscape"
   xmlns:sodipodi="http://sodipodi.sourceforge.net/DTD/sodipodi-0.dtd"
   xmlns:xlink="http://www.w3.org/1999/xlink"
   xmlns="http://www.w3.org/2000/svg"
   xmlns:svg="http://www.w3.org/2000/svg"
   xmlns:rdf="http://www.w3.org/1999/02/22-rdf-syntax-ns#"
   xmlns:cc="http://creativecommons.org/ns#"
   xmlns:dc="http://purl.org/dc/elements/1.1/"><defs
     id="defs2163"><linearGradient
       id="linearGradient13"
       inkscape:collect="always"><stop
         style="stop-color:#aa2255;stop-opacity:0.5529412;"
         offset="0"
         id="stop13" /><stop
         style="stop-color:#aa2255;stop-opacity:0.81568629;"
         offset="1"
         id="stop14" /></linearGradient><linearGradient
       inkscape:collect="always"
       xlink:href="#linearGradient13"
       id="linearGradient14"
       x1="323.95759"
       y1="533.14062"
       x2="666.57615"
       y2="533.14062"
       gradientUnits="userSpaceOnUse" /></defs><sodipodi:namedview
     id="base"
     pagecolor="#ffffff"
     bordercolor="#666666"
     borderopacity="1.0"
     gridtolerance="10000"
     guidetolerance="10"
     objecttolerance="10"
     inkscape:pageopacity="0.0"
     inkscape:pageshadow="2"
     inkscape:zoom="1.5389644"
     inkscape:cx="160.17264"
     inkscape:cy="116.63687"
     inkscape:document-units="px"
     inkscape:current-layer="layer1"
     height="240px"
     width="410px"
     inkscape:window-width="1920"
     inkscape:window-height="1011"
     inkscape:window-x="0"
     inkscape:window-y="0"
     inkscape:showpageshadow="2"
     inkscape:pagecheckerboard="0"
     inkscape:deskcolor="#d1d1d1"
     inkscape:window-maximized="1"
     showgrid="false" /><metadata
     id="metadata2166"><rdf:RDF><cc:Work
         rdf:about=""><dc:format>image/svg+xml</dc:format><dc:type
           rdf:resource="http://purl.org/dc/dcmitype/StillImage" /></cc:Work></rdf:RDF></metadata><g
     inkscape:label="Layer 1"
     inkscape:groupmode="layer"
     id="layer1"
     transform="translate(-183.18751,-412.51844)"><path
       style="fill:url(#linearGradient14);stroke-width:0.457594;opacity:0.598"
       d="m 383.62175,638.06991 c -16.98427,-2.16407 -30.10747,-8.61381 -41.43008,-20.3619 -8.96929,-9.30631 -15.07553,-21.33417 -17.45921,-34.3905 -1.06116,-5.81234 -1.02712,-16.94347 0.0696,-22.75323 5.69215,-30.15389 30.14824,-52.22375 60.28336,-54.40143 4.62751,-0.33439 12.98243,-0.0122 15.81473,0.60988 l 1.26988,0.27892 5.61481,-18.65994 c 11.87675,-39.47044 15.29374,-48.3638 20.61945,-53.66599 5.21406,-5.19105 8.16892,-5.92096 25.91582,-6.40166 7.5503,-0.20451 13.83078,-0.30933 13.95662,-0.23292 0.12585,0.0764 0.16647,3.04189 0.0903,6.58996 l -0.13852,6.45104 -7.183,0.0102 c -3.95064,0.006 -9.71793,0.20749 -12.81618,0.44841 -8.24598,0.64121 -10.88949,2.0745 -13.15279,7.13132 -0.8733,1.95117 -5.23772,16.71591 -5.23772,17.71907 0,0.17578 26.08443,0.26734 57.96541,0.20346 l 57.96541,-0.11615 2.21783,-6.14508 c 1.21981,-3.37979 2.05909,-6.28367 1.86506,-6.45308 -0.19402,-0.1694 -3.54449,-0.97501 -7.44548,-1.79024 -20.25146,-4.23219 -22.79659,-5.34816 -21.192,-9.29212 l 0.69814,-1.71598 h 29.18191 29.18192 l 0.33235,6.20542 c 0.18281,3.41298 0.20516,6.33262 0.0497,6.48808 -0.15547,0.15547 -3.66996,0.37536 -7.81,0.48865 l -7.52734,0.20598 -1.14002,3.02982 c -0.627,1.6664 -1.66067,4.43423 -2.29703,6.15072 l -1.15704,3.12091 9.19695,20.44521 c 5.05832,11.24486 9.26696,20.52213 9.35254,20.61614 0.0855,0.094 1.86331,-0.25788 3.9505,-0.78199 7.0037,-1.75871 10.11137,-2.1318 17.52272,-2.1037 18.4307,0.0698 33.19069,6.18879 46.26141,19.17822 10.19814,10.13471 16.21665,21.52603 18.75822,35.50397 1.078,5.92877 1.07444,16.57269 -0.008,22.62046 -3.69421,20.64811 -17.06082,38.58298 -35.72601,47.93595 -15.51459,7.77424 -34.08256,9.03853 -50.75479,3.4559 -20.75409,-6.94944 -37.27148,-24.63531 -42.76139,-45.78646 l -0.86104,-3.31741 -15.27303,-0.2629 c -16.66198,-0.2868 -17.63185,-0.42497 -21.81175,-3.10721 -3.14197,-2.01619 -9.54751,-8.76177 -20.69882,-21.79758 -10.8834,-12.72266 -23.70164,-27.33915 -31.299,-35.6899 -8.84021,-9.71684 -25.59132,-27.68019 -25.70562,-27.56589 -0.14224,0.14223 -4.75996,14.4467 -4.75996,14.74507 0,0.12336 1.69882,1.07648 3.77515,2.11807 9.16325,4.59666 18.85282,13.02334 24.47281,21.28313 7.94344,11.67458 11.73127,23.86049 11.71652,37.69336 -0.0147,13.80421 -3.48183,25.41897 -10.98766,36.80847 -3.73393,5.66595 -12.45737,14.51967 -17.76576,18.03109 -7.43109,4.91556 -16.01008,8.48888 -24.46505,10.1902 -4.2492,0.85502 -15.78104,1.47612 -19.23522,1.036 z m 18.83896,-15.88987 c 9.34877,-2.41265 17.16043,-6.88801 23.98474,-13.74104 2.28632,-2.29594 4.99216,-5.4169 6.01297,-6.93545 13.80928,-20.54261 11.84722,-46.54343 -4.89457,-64.86161 -4.10428,-4.49074 -15.08763,-12.06843 -15.98334,-11.02731 -0.18988,0.2207 -2.25756,6.5788 -4.59484,14.12911 -9.36618,30.25628 -11.24051,35.41472 -13.51933,37.20723 -1.66392,1.30885 -4.92024,1.3504 -6.9888,0.0892 -4.1572,-2.53468 -4.28129,-6.47439 -0.58384,-18.53504 1.31167,-4.27851 4.42584,-14.20757 6.92037,-22.06458 2.49455,-7.857 4.53553,-14.57424 4.53553,-14.92719 0,-0.94004 -6.99054,-1.37517 -12.35506,-0.76906 -12.28363,1.38785 -22.7822,6.36209 -31.34409,14.85087 -14.86465,14.7377 -19.34003,37.37001 -11.18108,56.54329 7.00126,16.4527 22.25169,28.29561 40.04719,31.09914 4.85162,0.76433 14.96191,0.22823 19.94415,-1.05754 z m 203.32315,0.14336 c 12.06097,-1.3654 22.81335,-6.49203 31.11776,-14.83663 15.83741,-15.91407 19.73785,-39.64735 9.77113,-59.45507 -2.75706,-5.47935 -5.16731,-8.79183 -9.73386,-13.3776 -6.78729,-6.81586 -14.48712,-11.2409 -23.98473,-13.78384 -3.97683,-1.06478 -5.23533,-1.18328 -12.43264,-1.17058 -6.43891,0.0113 -8.68031,0.18947 -11.43986,0.90904 -2.33503,0.60886 -3.38716,1.09225 -3.29179,1.51236 0.0771,0.3396 4.74299,10.82708 10.36868,23.30548 13.71198,30.41474 13.66187,30.28994 13.40538,33.3827 -0.16553,1.99619 -0.45436,2.71422 -1.42907,3.55262 -2.54013,2.18493 -3.31609,2.23637 -31.29385,2.07505 -14.4085,-0.083 -26.19728,-0.0439 -26.19728,0.0871 0,0.71741 2.6142,7.34613 3.90518,9.90223 6.38662,12.64518 18.75062,22.69394 32.3891,26.32395 7.03215,1.87168 12.31416,2.3126 18.84585,1.57317 z m -13.95663,-51.37221 c 0,-0.57682 -19.28732,-42.6701 -19.59926,-42.77407 -0.70546,-0.23516 -5.76901,3.86821 -9.09808,7.37286 -8.2854,8.72237 -12.98021,19.21698 -14.09966,31.51783 l -0.32118,3.52915 4.51369,0.15023 c 6.14001,0.20435 38.60449,0.3759 38.60449,0.204 z m -57.43151,-4.09498 c 0.53042,-6.24466 1.54805,-11.2655 3.41967,-16.87208 4.85205,-14.53467 12.63357,-24.47764 27.60579,-35.27382 0.76427,-0.55109 0.40691,-1.50592 -5.18811,-13.8621 -3.30492,-7.29863 -6.12449,-13.55018 -6.26574,-13.89232 -0.21646,-0.52438 -0.3113,-0.52438 -0.60382,0 -0.26519,0.47537 -24.77511,64.60632 -30.88651,80.81551 l -1.0783,2.85997 h 6.33818 6.3382 z m -10.77355,-42.37877 c 8.82161,-23.71376 16.0393,-43.27359 16.0393,-43.46629 0,-0.28977 -109.58669,-0.22349 -112.2801,0.0679 -0.61378,0.0664 10.51355,12.4816 39.34172,43.89513 26.77675,29.17814 40.30811,43.605 40.52868,43.21087 0.18211,-0.32543 7.5488,-19.99385 16.3704,-43.70762 z"
       id="path13" /></g></svg>
