<?xml version="1.0" encoding="UTF-8" standalone="no"?>
<svg
   viewBox="100 100 400 220"
   width="600"
   height="400"
   version="1.1"
   id="svg23"
   sodipodi:docname="bus.svg"
   inkscape:version="1.3.2 (091e20ef0f, 2023-11-25)"
   xmlns:inkscape="http://www.inkscape.org/namespaces/inkscape"
   xmlns:sodipodi="http://sodipodi.sourceforge.net/DTD/sodipodi-0.dtd"
   xmlns:xlink="http://www.w3.org/1999/xlink"
   xmlns="http://www.w3.org/2000/svg"
   xmlns:svg="http://www.w3.org/2000/svg">
  <sodipodi:namedview
     id="namedview25"
     pagecolor="#505050"
     bordercolor="#eeeeee"
     borderopacity="1"
     inkscape:showpageshadow="0"
     inkscape:pageopacity="0"
     inkscape:pagecheckerboard="0"
     inkscape:deskcolor="#505050"
     showgrid="false"
     inkscape:zoom="1.1891667"
     inkscape:cx="261.52767"
     inkscape:cy="303.15346"
     inkscape:window-width="1920"
     inkscape:window-height="1011"
     inkscape:window-x="0"
     inkscape:window-y="0"
     inkscape:window-maximized="1"
     inkscape:current-layer="svg23" />
  <!-- Bus Body -->
  <path
     id="rect2"
     style="opacity:0.58690345;fill:url(#linearGradient891);fill-opacity:1"
     d="M 210 92.851562 C 193.38014 92.851562 180 106.2317 180 122.85156 L 180 262.85156 C 180 279.47143 193.38014 292.85156 210 292.85156 L 220 292.85156 A 40 40 0 0 1 260 252.85156 A 40 40 0 0 1 300 292.85156 L 460 292.85156 A 40 40 0 0 1 500 252.85156 L 500 172.85156 L 500 132.85156 L 500 92.851562 L 210 92.851562 z M 210 122.85156 L 270 122.85156 C 275.53995 122.85156 280 127.31161 280 132.85156 L 280 172.85156 C 280 178.39152 275.53995 182.85156 270 182.85156 L 210 182.85156 C 204.46005 182.85156 200 178.39152 200 172.85156 L 200 132.85156 C 200 127.31161 204.46005 122.85156 210 122.85156 z M 310 122.85156 L 370 122.85156 C 375.53996 122.85156 380 127.3116 380 132.85156 L 380 172.85156 C 380 178.39153 375.53996 182.85156 370 182.85156 L 310 182.85156 C 304.46004 182.85156 300 178.39153 300 172.85156 L 300 132.85156 C 300 127.3116 304.46004 122.85156 310 122.85156 z M 410 122.85156 L 470 122.85156 C 475.53997 122.85156 480 127.31159 480 132.85156 L 480 172.85156 C 480 178.39154 475.53997 182.85156 470 182.85156 L 410 182.85156 C 404.46003 182.85156 400 178.39154 400 172.85156 L 400 132.85156 C 400 127.31159 404.46003 122.85156 410 122.85156 z " />
  <!-- Bus Windows -->
  <!-- Bus Wheels -->
  <circle
     cx="260"
     cy="292.85202"
     r="40"
     fill="#000000"
     id="circle12"
     style="opacity:0.58690345" />
  <path
     id="circle14"
     style="opacity:0.58690345"
     d="M 500 252.85156 A 40 40 0 0 0 460 292.85156 A 40 40 0 0 0 500 332.85156 L 500 252.85156 z " />
  <!-- Text -->
  <defs
     id="defs17">
    <linearGradient
       inkscape:collect="always"
       id="linearGradient889">
      <stop
         style="stop-color:#aa2256;stop-opacity:0.53333336;"
         offset="0"
         id="stop887" />
      <stop
         style="stop-color:#aa2255;stop-opacity:1;"
         offset="1"
         id="stop885" />
    </linearGradient>
    <path
       id="textPath"
       d="M160,240 h280" />
    <linearGradient
       inkscape:collect="always"
       xlink:href="#linearGradient889"
       id="linearGradient891"
       x1="100"
       y1="200"
       x2="500"
       y2="200"
       gradientUnits="userSpaceOnUse"
       gradientTransform="translate(79.999999,-7.1479825)" />
  </defs>
</svg>
