<?xml version="1.0" encoding="UTF-8" standalone="no"?>
<!-- Created with Inkscape (http://www.inkscape.org/) -->

<svg
   width="85.599998mm"
   height="53.98mm"
   viewBox="0 0 323.52756 204.01889"
   version="1.1"
   id="svg5"
   xml:space="preserve"
   inkscape:version="1.3.2 (091e20ef0f, 2023-11-25)"
   sodipodi:docname="ice.svg"
   xmlns:inkscape="http://www.inkscape.org/namespaces/inkscape"
   xmlns:sodipodi="http://sodipodi.sourceforge.net/DTD/sodipodi-0.dtd"
   xmlns:xlink="http://www.w3.org/1999/xlink"
   xmlns="http://www.w3.org/2000/svg"
   xmlns:svg="http://www.w3.org/2000/svg"><sodipodi:namedview
     id="namedview7"
     pagecolor="#505050"
     bordercolor="#eeeeee"
     borderopacity="1"
     inkscape:showpageshadow="0"
     inkscape:pageopacity="0"
     inkscape:pagecheckerboard="0"
     inkscape:deskcolor="#505050"
     inkscape:document-units="mm"
     showgrid="false"
     inkscape:zoom="2.2053763"
     inkscape:cx="61.214043"
     inkscape:cy="119.48074"
     inkscape:window-width="2560"
     inkscape:window-height="1371"
     inkscape:window-x="0"
     inkscape:window-y="0"
     inkscape:window-maximized="1"
     inkscape:current-layer="layer1" /><defs
     id="defs2"><linearGradient
       inkscape:collect="always"
       id="linearGradient3952"><stop
         style="stop-color:#aa2255;stop-opacity:0.40784314;"
         offset="0"
         id="stop3950" /><stop
         style="stop-color:#aa2255;stop-opacity:1;"
         offset="1"
         id="stop3948" /></linearGradient><linearGradient
       inkscape:collect="always"
       id="linearGradient3942"><stop
         style="stop-color:#3b3b3b;stop-opacity:0.41016942;"
         offset="0"
         id="stop3940" /><stop
         style="stop-color:#3b3b3b;stop-opacity:1;"
         offset="1"
         id="stop3938" /></linearGradient><linearGradient
       inkscape:collect="always"
       id="linearGradient3932"><stop
         style="stop-color:#aa2255;stop-opacity:0.17763157;"
         offset="0"
         id="stop3930" /><stop
         style="stop-color:#aa2255;stop-opacity:0.31633282;"
         offset="1"
         id="stop3928" /></linearGradient><linearGradient
       inkscape:collect="always"
       xlink:href="#linearGradient3932"
       id="linearGradient3934"
       x1="21.980256"
       y1="92.548273"
       x2="323.52755"
       y2="92.548273"
       gradientUnits="userSpaceOnUse" /><linearGradient
       inkscape:collect="always"
       xlink:href="#linearGradient3942"
       id="linearGradient3944"
       x1="33.573887"
       y1="150.35565"
       x2="169.13008"
       y2="150.35565"
       gradientUnits="userSpaceOnUse" /><linearGradient
       inkscape:collect="always"
       xlink:href="#linearGradient3952"
       id="linearGradient3954"
       x1="21.992473"
       y1="126.84791"
       x2="152.46676"
       y2="126.84791"
       gradientUnits="userSpaceOnUse" /></defs><g
     inkscape:label="Ebene 1"
     inkscape:groupmode="layer"
     id="layer1"><path
       style="opacity:0.58095915;fill:url(#linearGradient3934);fill-opacity:1"
       d="m 323.52755,35.436099 c 0,0 -91.37225,-1.6405 -108.79391,0.230178 -17.42166,1.870678 -38.42673,9.127835 -49.35673,13.145117 -10.93,4.017282 -40.81002,15.780306 -46.91226,18.799564 -6.10224,3.019258 -39.996546,21.794855 -39.996546,21.794855 0,0 -34.697437,21.445477 -38.73668,24.834937 -4.039243,3.38946 -13.670767,10.56679 -14.714497,13.6541 -1.043731,3.08731 -3.218875,4.97752 -3.024454,9.46719 0.194421,4.48968 1.866707,6.56144 4.55805,9.03364 2.691343,2.47221 7.146558,3.93018 7.146558,3.93018 l 5.660764,-7.00786 284.169705,-0.68015 z"
       id="path968" /><path
       style="opacity:0.58095915;fill:url(#linearGradient3944);fill-opacity:1"
       d="m 33.697081,150.32586 c 0,0 -1.667076,0.81524 7.263812,2.07282 8.930888,1.25758 2.703652,1.02369 17.468028,1.92071 14.764376,0.89703 15.789508,0.89254 31.219427,1.73731 15.429922,0.84477 33.820922,1.07149 43.987672,1.07149 10.16675,0 34.84859,0.57571 34.84859,0.57571 l 0.64547,-14.69651 -129.772235,0.31061 z"
       id="path1852" /><path
       style="opacity:0.58095915;fill:#3c3c3c;fill-opacity:1"
       d="m 215.29543,142.8969 0.28406,17.55572 107.94806,-0.13744 v -17.67733 z"
       id="path1980" /><path
       style="opacity:0.58095915;fill:#0f0f0f;fill-opacity:0.57896799"
       d="m 174.84548,142.99372 c 0,0 -1.11842,2.06445 -1.45973,5.46813 -0.34132,3.40368 -0.54228,8.21199 0.0854,9.83561 0.62766,1.62362 0.8366,3.6525 3.43939,6.04757 2.60279,2.39507 4.61473,3.23726 4.61473,3.23726 l 22.0221,-0.0764 c 0,0 1.20146,-0.97349 2.24372,-2.36786 1.04227,-1.39437 3.15034,-3.2111 3.82757,-4.89864 0.67723,-1.68753 1.75791,-4.40805 1.99788,-6.5511 0.23998,-2.14306 0.74318,-2.66 0.36021,-5.58603 -0.38296,-2.92604 -2.05364,-5.09487 -2.05364,-5.09487 z"
       id="path1982" /><path
       style="opacity:0.58095915;fill:url(#linearGradient3954);fill-opacity:1"
       d="m 23.053623,132.07373 c 0,0 22.596924,0.57779 38.322571,-1.30648 15.725647,-1.88427 45.445566,-8.58123 52.840896,-9.70948 7.39533,-1.12825 38.24967,-4.72395 38.24967,-4.72395 l -1.8476,8.56101 c 0,0 -12.76434,1.61988 -25.3938,2.51523 -12.62947,0.89535 -30.286429,3.77736 -42.889907,5.74748 -12.603477,1.97011 -37.920145,4.13055 -42.311207,4.13055 -4.391062,0 -18.031773,0.0739 -18.031773,0.0739 z"
       id="path1984" /><path
       style="opacity:0.58095915;fill:#aa2255;fill-opacity:0.58039218"
       d="m 195.34191,116.33382 -1.5539,8.44333 129.73954,0.48114 v -8.92447 z"
       id="path3120" /><path
       style="opacity:0.58095915;fill:#010000;fill-opacity:1"
       d="m 108.26712,97.80077 0.71032,14.57727 c 0,0 9.36445,-3.59836 22.64124,-7.96297 13.27678,-4.36462 14.31187,-6.274554 26.92637,-7.269355 12.61449,-0.9948 34.04483,-0.397297 34.04483,-0.397297 V 71.040632 c 0,0 -19.11558,-1.184129 -28.1008,0.423741 -8.98522,1.607871 -21.28341,5.702119 -31.4022,11.102532 -10.11879,5.400412 -24.81976,15.233865 -24.81976,15.233865 z"
       id="path3122" /><rect
       style="opacity:0.58095915;fill:#010000;fill-opacity:1"
       id="rect3365"
       width="70.269226"
       height="27.853348"
       x="253.25833"
       y="70.620544" /><rect
       style="opacity:0.58095915;fill:none;fill-opacity:0.57896799;stroke:#000000;stroke-opacity:0.25739363;stroke-width:3.6472441;stroke-dasharray:none"
       id="rect3371"
       width="35.155499"
       height="83.035172"
       x="203.70224"
       y="56.592686" /><text
       xml:space="preserve"
       style="font-size:26.6667px;font-family:Roboto;-inkscape-font-specification:Roboto;opacity:0.58095915;fill:#000000;fill-opacity:0.69611269;stroke:#000000;stroke-width:3.64724;stroke-dasharray:none;stroke-opacity:1"
       x="152.18095"
       y="134.73744"
       id="text3479"><tspan
         sodipodi:role="line"
         id="tspan3477"
         x="152.18095"
         y="134.73744"
         style="font-style:italic;font-variant:normal;font-weight:bold;font-stretch:normal;font-size:26.6667px;font-family:Roboto;-inkscape-font-specification:'Roboto Bold Italic';fill:#000000;fill-opacity:0.69611269;stroke:none">ICE</tspan></text><rect
       style="opacity:0.58095915;fill:#010000;fill-opacity:1;stroke:none;stroke-width:3.89751;stroke-dasharray:none;stroke-opacity:0.257394"
       id="rect3874"
       width="16.052265"
       height="28.514021"
       x="213.25386"
       y="71.516075"
       ry="7.1811023" /></g></svg>
