<?xml version="1.0" encoding="UTF-8" standalone="no"?>
<!-- Created with Inkscape (http://www.inkscape.org/) -->

<svg
   width="85.599998mm"
   height="53.98mm"
   viewBox="0 0 323.52756 204.01889"
   version="1.1"
   id="svg5"
   xml:space="preserve"
   inkscape:version="1.3.2 (091e20ef0f, 2023-11-25)"
   sodipodi:docname="nahsh-stadtler-flirt-blue.svg"
   xmlns:inkscape="http://www.inkscape.org/namespaces/inkscape"
   xmlns:sodipodi="http://sodipodi.sourceforge.net/DTD/sodipodi-0.dtd"
   xmlns:xlink="http://www.w3.org/1999/xlink"
   xmlns="http://www.w3.org/2000/svg"
   xmlns:svg="http://www.w3.org/2000/svg"><sodipodi:namedview
     id="namedview7"
     pagecolor="#505050"
     bordercolor="#eeeeee"
     borderopacity="1"
     inkscape:showpageshadow="0"
     inkscape:pageopacity="0"
     inkscape:pagecheckerboard="0"
     inkscape:deskcolor="#505050"
     inkscape:document-units="mm"
     showgrid="false"
     inkscape:zoom="1.3507185"
     inkscape:cx="-39.238376"
     inkscape:cy="53.675137"
     inkscape:window-width="1920"
     inkscape:window-height="1011"
     inkscape:window-x="0"
     inkscape:window-y="0"
     inkscape:window-maximized="1"
     inkscape:current-layer="layer1" /><defs
     id="defs2"><linearGradient
       inkscape:collect="always"
       id="linearGradient5400"><stop
         style="stop-color:#000000;stop-opacity:0.61105442;"
         offset="0"
         id="stop5398" /><stop
         style="stop-color:#000000;stop-opacity:1;"
         offset="1"
         id="stop5396" /></linearGradient><linearGradient
       inkscape:collect="always"
       id="linearGradient5390"><stop
         style="stop-color:#000000;stop-opacity:0.44826737;"
         offset="0"
         id="stop5388" /><stop
         style="stop-color:#000000;stop-opacity:1;"
         offset="1"
         id="stop5386" /></linearGradient><linearGradient
       inkscape:collect="always"
       id="linearGradient5347"><stop
         style="stop-color:#aa2255;stop-opacity:0.76202714;"
         offset="0"
         id="stop5345" /><stop
         style="stop-color:#aa3355;stop-opacity:1;"
         offset="1"
         id="stop5343" /></linearGradient><linearGradient
       inkscape:collect="always"
       id="linearGradient5337"><stop
         style="stop-color:#aa2255;stop-opacity:0.33333334;"
         offset="0"
         id="stop5335" /><stop
         style="stop-color:#aa2255;stop-opacity:1;"
         offset="1"
         id="stop5333" /></linearGradient><linearGradient
       inkscape:collect="always"
       xlink:href="#linearGradient5337"
       id="linearGradient5339"
       x1="51.980469"
       y1="105.375"
       x2="323.52734"
       y2="105.375"
       gradientUnits="userSpaceOnUse" /><linearGradient
       inkscape:collect="always"
       xlink:href="#linearGradient5347"
       id="linearGradient5349"
       x1="98.189453"
       y1="25.672852"
       x2="323.52734"
       y2="25.672852"
       gradientUnits="userSpaceOnUse" /><linearGradient
       inkscape:collect="always"
       xlink:href="#linearGradient5390"
       id="linearGradient5392"
       x1="57.466357"
       y1="132.89831"
       x2="104.4513"
       y2="132.89831"
       gradientUnits="userSpaceOnUse" /><linearGradient
       inkscape:collect="always"
       xlink:href="#linearGradient5400"
       id="linearGradient5402"
       x1="106.9347"
       y1="90.617654"
       x2="189.77303"
       y2="90.617654"
       gradientUnits="userSpaceOnUse"
       gradientTransform="matrix(1.000045,0,0,0.99393284,-0.00668146,1.0172167)" /></defs><g
     inkscape:label="Ebene 1"
     inkscape:groupmode="layer"
     id="layer1"><path
       id="path2251"
       style="opacity:0.58112899;fill:url(#linearGradient5339);fill-opacity:1;stroke-width:3.64724;stroke-opacity:0.257394"
       d="M 117.37891 33.140625 C 117.37891 33.140625 103.97133 35.42358 98.189453 38.734375 C 95.235351 40.425939 92.588559 43.624579 90.761719 45.744141 C 88.93488 47.863703 75.057267 64.748757 71.935547 69.458985 C 68.813827 74.169211 61.112845 89.882057 59.027344 97.492188 C 56.941843 105.10232 56.361353 110.84495 56.064453 116.88672 C 55.767554 122.92849 57.35594 132.89727 57.494141 133.77539 L 51.980469 138.03516 C 51.980469 138.03516 55.835341 168.85694 58.228516 171.17773 C 60.621688 173.49854 62.86033 174.05872 73.990235 175.82031 C 85.120138 177.5819 118.45898 177.60938 118.45898 177.60938 L 179.74414 176.64844 L 323.52734 34.427734 L 117.37891 33.140625 z M 128.89453 49.648438 L 112.24219 86.263672 C 112.24219 86.263672 88.369487 87.187493 83.902344 86.78711 C 79.435201 86.386725 81.178688 82.880922 82.0625 79.53711 C 82.946312 76.193296 103.57617 51.259766 103.57617 51.259766 C 103.57617 51.259766 104.88026 50.518996 107.89648 50.041016 C 110.9127 49.56304 128.89453 49.648438 128.89453 49.648438 z M 159.50781 58.419922 L 168.55078 58.419922 C 170.85402 58.419922 172.70898 60.272932 172.70898 62.576172 L 172.70898 83.865235 C 172.70898 86.168473 170.85402 88.021485 168.55078 88.021485 L 159.50781 88.021485 C 157.20458 88.021485 155.34961 86.168473 155.34961 83.865235 L 155.34961 62.576172 C 155.34961 60.272932 157.20458 58.419922 159.50781 58.419922 z " /><path
       id="path4066"
       style="opacity:0.58112899;fill:url(#linearGradient5349);fill-opacity:1;stroke-width:3.64724;stroke-opacity:0.257394"
       d="M 245.00391 12.611328 C 245.00391 12.611328 151.16301 14.142782 144.89844 14.9375 C 138.63386 15.732219 126.77094 20.308132 119.16602 23.853516 C 111.56109 27.398899 98.189453 38.734375 98.189453 38.734375 C 103.97134 35.423576 117.37891 33.140625 117.37891 33.140625 L 323.52734 34.427734 L 323.52734 23.806641 L 245.05469 22.775391 L 245.00391 12.611328 z " /><path
       id="path4159"
       style="opacity:0.58112899;fill:#aa2255;fill-opacity:1;stroke-width:3.64724;stroke-opacity:0.257394"
       d="M 323.52734 34.427734 L 203.84375 152.81055 L 323.52734 152.81055 L 323.52734 34.427734 z " /><path
       style="opacity:0.58112899;fill:#e6f7ff;fill-opacity:1;stroke-width:3.64724;stroke-opacity:0.257394"
       d="m 210.1061,146.61511 7.88597,-7.80018 105.53548,-0.91465 v 7.297 z"
       id="path4161" /><rect
       style="opacity:0.13375722;fill:none;fill-opacity:1;stroke-width:1.75748032;stroke-opacity:1;stroke:#000000;stroke-dasharray:none"
       id="rect4341"
       width="42.336082"
       height="99.396576"
       x="142.06429"
       y="46.576447"
       ry="7.1811023" /><path
       id="path4864"
       style="opacity:0.58112899;fill:#010101;fill-opacity:1;stroke:none;stroke-width:3.64724;stroke-opacity:1"
       d="M 208.16406 152.81055 L 208.00977 159.28711 L 208.06445 159.31836 A 21.196617 20.616926 0 0 0 196.88672 177.42773 A 21.196617 20.616926 0 0 0 218.08399 198.04492 A 21.196617 20.616926 0 0 0 239.28125 177.42773 L 255.27734 188.80859 L 305.06055 188.94922 L 323.52734 169.36719 L 323.52734 152.81055 L 208.16406 152.81055 z " /><path
       style="opacity:0.58112899;fill:#ffffff;fill-opacity:1;stroke:none;stroke-width:3.64724;stroke-opacity:1"
       d="M 312.07042,45.760139 323.52734,34.427734 V 45.849976 Z"
       id="path4869" /><path
       style="opacity:0.58112899;fill:#000000;fill-opacity:1;stroke:none;stroke-width:3.64724;stroke-opacity:1"
       d="m 52.869596,144.69693 -7.374352,0.30016 -0.177507,17.15805 10.264682,-0.40363 z"
       id="path5060" /><path
       style="opacity:0.13375722;fill:none;fill-opacity:1;stroke:url(#linearGradient5392);stroke-width:1.69322836;stroke-miterlimit:4;stroke-dasharray:none;stroke-opacity:1"
       d="m 57.498102,133.77862 46.921458,-1.76061"
       id="path5314" /><path
       style="opacity:0.13375722;fill:none;fill-opacity:1;stroke:url(#linearGradient5402);stroke-width:1.75218;stroke-miterlimit:4;stroke-dasharray:none;stroke-opacity:1"
       d="m 169.97582,14.999712 c 0,0 -11.09752,5.066517 -14.96144,8.590344 -3.86392,3.523826 -14.16279,11.923621 -17.53415,17.295113 -3.37136,5.371491 -25.78594,58.936845 -27.00835,67.623161 -1.2224,8.68632 -3.52895,14.87204 -2.31752,23.72913 1.21143,8.8571 6.6741,34.84992 6.6741,34.84992 l 74.94232,-0.34915"
       id="path5316" /></g></svg>
